# xmcd
#
# Track frame offsets:
#	150
#	23427
#	38037
#
# Disc length: 952 seconds
#
# Revision: 1
# Processed by: cddbd v1.5PL3 Copyright (c) Steve Scherf et al.
# Submitted via: CDex 1.50Beta5
#
DISCID=1403b603
DTITLE=Native - 新しい国
DYEAR=1900
DGENRE=Japanese Rock
TTITLE0=新しい国
TTITLE1=終わりなき円の中
TTITLE2=砂
EXTD=
EXTT0=
EXTT1=
EXTT2=
PLAYORDER=
